<svg version="1.1" id="Layer_1" xmlns="http://www.w3.org/2000/svg" xmlns:xlink="http://www.w3.org/1999/xlink" x="0px" y="0px"
	 width="100%" viewBox="0 0 209 242" enable-background="new 0 0 209 242" xml:space="preserve">
<path fill="#FDFDFD" opacity="1.000000" stroke="none" 
	d="
M101.035889,242.614944 
	C68.849258,243.000000 36.698368,242.958054 4.548033,243.072601 
	C1.704498,243.082733 0.902424,242.672012 0.907134,239.551102 
	C1.025311,161.256729 1.026978,82.962097 0.906795,4.667727 
	C0.901695,1.345412 1.901418,0.932812 4.828782,0.936409 
	C71.962097,1.018895 139.095566,1.023286 206.228836,0.925039 
	C209.295425,0.920552 210.087540,1.546015 210.083206,4.725346 
	C209.976868,82.853165 209.965637,160.981232 210.108536,239.108932 
	C210.115204,242.750778 209.089020,243.098343 205.894409,243.082581 
	C177.242615,242.941101 148.589813,243.000000 119.468658,243.000000 
	C118.866592,240.996811 120.501694,241.083435 121.704727,240.840256 
	C123.331833,240.511337 125.026215,240.566803 126.640808,240.101837 
	C129.132309,239.384369 131.466919,238.379089 131.999466,235.499557 
	C132.481674,232.892090 130.895935,231.129837 129.128296,229.487549 
	C123.061531,223.851151 115.616676,221.923721 107.631958,221.414673 
	C106.467247,221.340408 105.296989,221.380981 104.135101,221.286407 
	C99.197830,220.884552 98.182968,219.166840 100.758690,214.845978 
	C103.233589,210.694244 105.802803,206.621704 107.506050,202.067505 
	C107.978241,200.804962 108.757751,199.220993 110.217430,199.518555 
	C117.147003,200.931091 123.174950,197.055634 129.765533,196.348846 
	C135.630737,195.719849 141.365234,195.939209 147.161728,196.291611 
	C147.986954,196.341782 148.808548,196.505844 149.644012,196.516846 
	C157.972473,196.626541 157.972458,196.628265 161.132477,204.400620 
	C162.479843,207.714600 165.426849,208.644623 168.855301,206.752716 
	C171.732300,205.165100 173.531845,202.571350 175.110062,199.787704 
	C183.964798,184.169662 184.178574,168.115570 177.249023,151.848709 
	C175.241592,147.136368 171.184006,143.921234 166.985672,141.239868 
	C163.926590,139.286102 160.745132,141.133835 159.382492,145.162796 
	C157.985336,149.293777 159.197250,153.428970 159.787659,157.479340 
	C160.577057,162.894882 160.894623,168.402313 162.542374,173.688309 
	C163.422333,176.511200 161.783585,178.103378 159.351700,179.034149 
	C155.441025,180.530914 151.343414,181.371719 147.217743,181.865845 
	C143.837555,182.270706 142.447144,180.565460 143.349487,176.788101 
	C144.361404,172.551956 144.696014,168.242691 145.341537,163.973419 
	C146.195251,158.327316 145.606400,152.680832 144.561066,147.083969 
	C144.091522,144.570053 144.344437,142.462051 147.354355,141.610291 
	C155.229675,139.381714 157.075821,132.711182 158.519516,125.925209 
	C159.042984,123.464615 158.983322,120.890190 161.459106,119.383873 
	C164.046158,117.809853 166.442841,115.578476 165.203110,112.570633 
	C163.917694,109.451935 161.492996,106.546318 157.963516,105.542419 
	C155.741470,104.910385 153.465561,104.413177 151.220657,103.791153 
	C147.177078,102.670715 142.076202,107.435776 141.437607,112.870110 
	C141.145569,115.355301 141.197891,117.776878 143.149384,119.877151 
	C145.093994,121.970039 145.831268,124.532043 144.219223,127.218445 
	C142.420410,130.216080 139.521286,130.386871 136.732285,129.332413 
	C130.468430,126.964195 123.519684,125.303802 122.103279,117.008369 
	C121.731422,114.830559 119.652824,114.613228 117.769341,114.351784 
	C111.621628,113.498413 109.258049,110.147835 111.593155,104.459457 
	C114.314323,97.830620 117.868851,91.900986 124.790512,88.199638 
	C135.304382,82.577370 146.051208,77.138878 153.993546,67.676521 
	C159.257553,61.405094 161.494583,54.418812 160.217987,46.408939 
	C159.599045,42.525501 159.040451,39.206638 162.732727,36.101654 
	C165.894302,33.442966 164.584839,27.191141 160.786209,23.035545 
	C157.418076,19.350899 154.425034,18.826717 150.295776,21.743378 
	C148.173431,23.242477 146.594940,23.302610 144.479141,21.868998 
	C132.047821,13.445850 118.938606,12.170709 105.160545,18.347656 
	C98.783417,21.206627 92.202919,23.580593 85.915825,26.675823 
	C80.992577,29.099617 75.664116,29.329679 70.288589,28.339371 
	C64.954887,27.356766 64.442284,26.686543 64.216423,20.368687 
	C63.646534,20.299381 63.164955,20.632614 63.073147,21.070051 
	C62.039165,25.996553 58.484539,26.490644 54.319012,26.354649 
	C48.666092,26.170095 43.012794,26.041025 37.673920,28.614038 
	C23.039497,35.666939 16.284958,47.968716 14.441779,63.464264 
	C14.082006,66.488869 13.540248,69.290077 12.170289,72.048035 
	C6.845846,82.767044 7.746086,94.142509 9.485328,105.381821 
	C10.967124,114.957466 14.153920,124.071960 19.188854,132.490784 
	C23.317249,139.393784 29.462482,144.013229 36.583508,146.921799 
	C47.604183,151.423172 56.168919,144.242996 55.504528,131.662155 
	C55.442818,130.493683 55.147861,129.357590 54.990631,128.202637 
	C53.911194,120.273361 55.571262,118.093544 63.423653,117.762390 
	C69.604332,117.501724 75.680626,116.706680 81.682747,115.249245 
	C84.825714,114.486069 87.986107,114.420692 91.043785,115.537231 
	C93.795509,116.542061 97.219467,117.176773 97.056808,121.108536 
	C96.928375,124.212845 92.443565,128.042068 89.138817,128.264221 
	C86.155540,128.464767 83.182320,128.461853 80.195030,128.972244 
	C76.395271,129.621445 73.307770,131.349747 70.587532,133.902588 
	C68.177094,136.164658 66.203583,138.964615 62.787029,139.937958 
	C62.326191,140.069244 61.974098,140.505417 61.639568,140.880905 
	C58.547440,144.351624 61.609848,155.570984 66.077728,156.789200 
	C68.084335,157.336349 69.586594,158.648682 71.357361,159.525162 
	C74.252060,160.957977 77.136269,161.690109 78.773651,157.698380 
	C79.323982,156.356750 80.475121,155.838196 81.735397,155.252396 
	C86.031082,153.255722 86.736526,150.017838 83.771568,146.614624 
	C81.077957,143.522858 81.232925,142.133438 84.834030,140.500565 
	C89.864799,138.219437 95.228111,138.259537 100.542175,139.053131 
	C103.336075,139.470383 104.235664,141.669540 103.866882,144.322525 
	C103.464409,147.217911 102.050011,149.632034 100.185875,151.849747 
	C96.863281,155.802521 93.539001,159.754028 90.370354,163.835617 
	C87.279961,167.816376 85.565308,172.239380 86.059250,177.298035 
	C86.414513,180.936401 84.893784,182.576538 81.437790,183.730515 
	C73.980667,186.220444 67.308144,190.224823 61.663086,195.877701 
	C62.933071,198.299988 64.842255,197.008804 66.483521,196.729965 
	C72.878944,195.643402 79.268234,194.525894 85.545357,192.838257 
	C87.303391,192.365585 89.125290,191.912918 90.972542,192.097809 
	C95.146706,192.515564 97.149551,195.959274 95.163948,199.483597 
	C92.053192,205.004990 88.053284,209.923706 84.234558,214.953293 
	C82.272720,217.537155 79.521652,218.603043 76.269028,218.059647 
	C72.182343,217.376892 68.058014,217.056046 65.779060,221.381775 
	C64.285370,224.216980 67.516968,231.121231 71.385536,233.351105 
	C76.438530,236.263687 81.761559,238.718719 87.610138,239.624100 
	C90.731483,240.107315 93.840363,240.742218 97.032562,240.735245 
	C98.513924,240.732010 100.069870,240.807785 101.035889,242.614944 
z"/>
<path fill="#0A0A0A" opacity="1.000000" stroke="none" 
	d="
M101.333328,243.000000 
	C95.971077,240.793900 90.380791,241.790741 85.243454,240.256958 
	C78.378273,238.207306 70.921280,237.123016 66.784126,230.171585 
	C65.549210,228.096619 64.353584,225.822327 63.909805,223.492691 
	C63.200218,219.767639 66.917511,215.763382 71.820343,216.824341 
	C81.488022,218.916428 84.879601,212.396484 89.086861,206.419128 
	C90.669868,204.170105 92.418884,202.015030 93.764893,199.632217 
	C94.390793,198.524200 96.733528,197.721313 95.296608,196.071320 
	C93.969131,194.546967 92.627159,192.324234 89.998283,193.119995 
	C87.490814,193.879013 84.862778,193.605331 82.338539,194.747238 
	C76.662094,197.315094 70.030785,196.194824 64.258705,199.050018 
	C63.390945,199.479263 59.662922,199.002808 58.994469,196.589020 
	C58.359104,194.294724 61.162941,194.677307 62.271648,193.673965 
	C67.112633,189.293015 72.588615,185.835846 78.552238,183.298462 
	C82.315613,181.697220 86.821144,182.086777 84.549118,175.158829 
	C82.790161,169.795334 87.336891,164.916504 90.796127,161.096512 
	C94.183968,157.355377 96.535912,152.751877 100.717751,149.613998 
	C102.650833,148.163483 102.755188,145.167633 103.387596,142.763138 
	C103.777260,141.281616 102.927574,140.401825 101.648926,140.341064 
	C94.850540,140.017929 87.839790,138.725189 81.838371,143.859009 
	C86.921089,146.523697 88.831444,150.759415 85.572914,154.218140 
	C83.056030,156.889664 79.550850,158.540878 76.926064,161.628769 
	C74.859917,164.059448 61.105614,157.537842 60.304676,153.959717 
	C59.477642,150.265015 59.379566,146.383179 59.246742,142.573318 
	C59.212181,141.582123 60.124016,139.763809 60.793922,139.667603 
	C66.228111,138.887207 68.048218,133.532379 72.124962,131.033707 
	C77.166588,127.943649 82.623802,127.337051 88.235260,127.375076 
	C91.149033,127.394814 93.823967,127.989250 94.160545,123.710434 
	C94.246475,122.617935 96.082703,121.663094 97.199150,120.561745 
	C93.296806,115.760849 87.961060,115.339005 82.703659,116.355804 
	C75.012062,117.843361 67.329956,119.092407 59.500839,119.307739 
	C56.685055,119.385185 55.645382,120.055145 55.786659,123.442497 
	C55.969444,127.825081 57.020508,132.055450 56.331577,136.697876 
	C54.098507,151.745712 40.601967,151.276733 31.881649,146.257111 
	C18.674904,138.654984 13.691094,126.092384 9.808414,112.485832 
	C7.411574,104.086266 7.116272,95.587585 6.920844,86.990738 
	C6.870013,84.754715 7.227640,82.642563 8.020508,80.766167 
	C12.028572,71.280670 12.769447,60.900513 16.033955,51.305439 
	C21.955860,33.899704 36.277199,22.782681 55.763691,25.233204 
	C58.587921,25.588364 61.434357,26.174755 61.083954,21.575752 
	C60.960106,19.950264 62.222523,18.418280 63.859882,17.776117 
	C64.773422,17.417833 65.753593,17.775227 66.393570,18.821287 
	C67.386734,20.444653 66.590630,21.426285 65.652626,22.762896 
	C64.621185,24.232655 64.093353,25.475847 67.091805,26.389780 
	C74.681427,28.703106 81.590088,27.906158 88.542801,24.312695 
	C95.553703,20.689159 102.758354,17.328243 110.342979,15.141996 
	C123.994461,11.206999 136.501022,13.803405 147.567841,22.851597 
	C151.860214,16.724607 157.034622,16.528622 162.012192,22.303984 
	C167.358444,28.507080 167.193878,32.870892 161.007965,39.021721 
	C159.760193,40.262421 161.064163,40.642601 161.112564,41.414948 
	C161.526520,48.020214 162.374817,54.608234 159.740799,61.060368 
	C158.971313,62.945274 158.024139,64.561584 156.798035,66.114738 
	C149.418243,75.463066 140.113190,82.277000 129.191284,86.873772 
	C120.962219,90.337189 115.913254,96.567955 112.791832,104.695625 
	C110.659668,110.247467 111.956863,112.472084 117.606804,112.979828 
	C121.622353,113.340698 125.783096,113.878143 123.561493,119.757744 
	C123.223244,120.652924 123.545479,120.865120 124.130447,121.239464 
	C128.948761,124.322906 133.437302,127.942940 139.348007,129.031998 
	C141.628860,129.452255 142.658463,127.827751 143.345810,126.811028 
	C144.410889,125.235580 144.582321,122.739021 143.051331,121.236565 
	C138.314423,116.587944 138.494141,112.533401 142.949280,107.538651 
	C144.700180,105.575699 145.378113,101.939255 148.435425,102.177719 
	C152.739212,102.513390 157.294281,103.368530 161.045624,105.331909 
	C162.707581,106.201736 164.578491,108.689598 166.030670,110.658127 
	C168.255524,113.674095 167.015854,117.992363 163.038803,119.699539 
	C160.014587,120.997704 159.191086,122.961975 159.286163,125.713074 
	C159.461258,130.780167 156.820786,134.818970 154.623993,139.013184 
	C153.339096,141.466370 150.486282,141.680374 148.329956,142.298401 
	C145.649963,143.066528 144.832352,143.764557 145.438950,146.635635 
	C147.639587,157.051514 146.618332,167.423935 143.955063,177.599533 
	C143.166550,180.612244 143.982971,181.324326 146.563431,180.894638 
	C150.811462,180.187271 155.070786,179.446045 159.231369,178.359238 
	C161.244858,177.833267 162.622269,176.281479 161.803879,173.791260 
	C159.217499,165.921173 158.379654,157.742142 157.686325,149.555466 
	C157.345703,145.533447 157.834625,141.520050 162.241714,139.863510 
	C166.171600,138.386337 169.122650,140.593811 171.998596,143.180862 
	C176.552002,147.276840 179.126862,152.336594 180.847183,158.114487 
	C185.567627,173.968582 183.099854,188.820236 174.816223,202.827545 
	C173.521652,205.016617 171.301025,206.829041 169.158646,208.309006 
	C165.094086,211.116821 160.434738,208.816010 159.745865,203.910339 
	C158.790909,197.109772 158.798523,197.167206 151.936584,198.079071 
	C150.491470,198.271103 148.953918,197.959671 147.482422,197.730011 
	C137.455307,196.165009 127.625214,196.796341 118.166466,200.621887 
	C117.024017,201.083939 115.782051,201.541016 114.914886,201.228836 
	C109.801453,199.387924 108.247223,202.327484 106.721329,206.401031 
	C105.400215,209.927872 103.317451,213.205566 101.305374,216.427277 
	C99.302979,219.633469 100.092041,220.786514 103.731873,220.747360 
	C110.200607,220.677765 116.717323,220.409805 122.724983,223.551880 
	C126.377220,225.462082 129.800873,227.651718 132.131424,231.176529 
	C134.847321,235.284134 133.781921,238.897202 129.021729,240.413284 
	C125.909134,241.404633 122.557121,241.644241 119.156174,242.610291 
	C118.555557,243.000000 118.111107,243.000000 117.333328,243.000000 
	C115.574654,241.995621 113.956810,242.695587 112.045517,242.485260 
	C108.984344,242.514160 106.318626,242.423080 103.327156,242.769592 
	C102.555557,243.000000 102.111107,243.000000 101.333328,243.000000 
z"/>
<path fill="#949494" opacity="1.000000" stroke="none" 
	d="
M103.449982,243.000000 
	C105.511841,240.850189 108.464333,242.569901 111.603607,242.133667 
	C112.185608,242.338913 112.328079,242.480774 112.235275,242.811310 
	C109.299988,243.000000 106.599968,243.000000 103.449982,243.000000 
z"/>
<path fill="#B5B5B5" opacity="1.000000" stroke="none" 
	d="
M112.416664,243.000000 
	C112.000000,243.000000 112.020836,242.598465 112.031982,242.397751 
	C113.607224,242.219635 115.171326,242.242249 116.867706,242.632416 
	C115.611107,243.000000 114.222221,243.000000 112.416664,243.000000 
z"/>
<path fill="#FDFDFD" opacity="1.000000" stroke="none" 
	d="
M148.800110,27.189915 
	C150.922928,29.552456 153.031952,31.516691 154.576797,33.853828 
	C162.984802,46.573883 161.110825,59.681896 149.260483,70.963310 
	C140.847900,78.972000 130.715683,84.545624 120.173973,88.875618 
	C104.545158,95.295151 89.664696,89.733521 80.533424,75.393562 
	C78.716751,72.540642 76.523720,70.026390 72.709480,70.002029 
	C71.264664,69.992790 69.896744,70.431030 69.914703,72.117683 
	C69.931786,73.722969 71.199684,73.851814 72.454086,73.472519 
	C75.170319,72.651207 76.636284,74.594864 77.672157,76.317482 
	C85.467361,89.280640 96.412064,95.613281 111.787575,93.123451 
	C113.073853,92.915161 114.423134,93.095901 115.962090,93.095901 
	C114.223663,96.374039 112.499825,99.477432 110.915436,102.650467 
	C109.039856,106.406662 108.757172,110.244919 110.701508,114.103767 
	C110.972939,114.642487 111.462410,115.298805 111.340263,115.767654 
	C110.893051,117.484283 100.490997,120.330254 99.287468,119.033211 
	C94.430748,113.799118 88.395958,113.138290 81.843124,114.344925 
	C74.157120,115.760223 66.483582,117.120972 58.607231,117.116379 
	C55.483440,117.114555 53.981956,116.201157 53.013172,113.079826 
	C48.457714,98.402580 40.671406,85.631775 29.433811,75.081062 
	C25.922474,71.784355 22.181343,68.624268 17.168737,67.947929 
	C15.343246,67.701622 15.020054,66.914673 15.083923,65.372757 
	C15.810613,47.829384 27.916826,31.164179 43.278038,27.946669 
	C49.950150,26.549150 57.336559,24.524607 63.279369,30.688862 
	C63.706566,31.131977 64.679619,31.265676 64.852310,30.364500 
	C65.259560,28.239256 66.924599,28.794865 67.946449,29.114697 
	C77.741928,32.180595 86.129967,28.031042 94.518082,24.031519 
	C100.961258,20.959360 107.497314,18.135315 114.432678,16.422615 
	C127.869759,13.104301 138.785797,18.192890 148.800110,27.189915 
z"/>
<path fill="#FBFBFB" opacity="1.000000" stroke="none" 
	d="
M88.092758,129.186401 
	C94.029236,129.311111 99.441704,130.207764 104.839172,131.203369 
	C106.136139,131.442612 107.762970,132.212875 108.550072,130.956024 
	C109.781914,128.989029 106.370110,129.461258 106.458344,127.598785 
	C110.257210,125.832153 114.119926,124.042282 117.975929,122.238029 
	C118.935310,121.789146 119.772705,121.827126 120.786888,122.300255 
	C134.256714,128.583984 142.883835,138.380707 144.018219,153.781860 
	C144.584320,161.467422 144.121902,169.012497 142.029404,176.476562 
	C141.080490,179.861420 139.664337,181.900208 135.742050,182.295898 
	C133.698410,182.502060 130.664307,182.402939 129.337479,185.673889 
	C134.378555,186.540176 138.703796,184.461761 143.163254,183.825912 
	C148.902390,183.007614 154.499008,181.080765 160.246323,180.465622 
	C164.401398,180.020905 164.669479,178.117477 164.035400,174.944427 
	C162.832230,168.923599 161.663086,162.895859 160.503128,156.866516 
	C159.973892,154.115662 159.702103,151.346695 160.096725,148.488937 
	C161.872223,149.270233 161.345200,152.073868 164.000107,152.272751 
	C165.013351,149.594177 162.375351,147.490952 162.723480,144.950653 
	C162.901016,143.655228 162.457779,142.235306 163.941101,141.470139 
	C164.963303,140.942825 165.876266,141.585678 166.782516,141.941528 
	C168.967209,142.799469 167.316635,144.049026 167.098663,145.171036 
	C166.540176,148.045807 167.290161,150.780304 168.109833,153.487732 
	C168.348328,154.275482 168.850266,155.108047 169.842224,154.838654 
	C170.956665,154.535995 170.517227,153.601364 170.444321,152.796188 
	C170.221863,150.339584 169.275375,147.937958 169.850174,145.063507 
	C172.448608,146.061020 173.448410,148.392838 174.659393,150.299805 
	C184.134613,165.220703 183.161346,187.352051 172.502762,201.468750 
	C171.604752,202.658127 170.653030,203.849289 169.536346,204.821503 
	C167.779572,206.351089 165.741592,207.975204 163.346161,206.537003 
	C161.141129,205.213120 161.318207,202.698364 162.052521,200.673920 
	C163.581009,196.460068 161.712479,195.926270 158.005768,195.657761 
	C148.379715,194.960464 138.751373,194.861191 129.126389,195.043945 
	C124.351448,195.134613 120.126328,197.939697 115.301743,198.497971 
	C102.768158,199.948318 90.865219,192.449371 87.928452,181.014755 
	C87.341499,178.729401 87.512337,177.444473 89.826752,176.278442 
	C96.989540,172.669662 100.194191,166.279602 101.130821,158.669678 
	C101.982422,151.750626 105.060417,145.706421 107.950378,139.277481 
	C101.252800,137.267410 94.292381,137.526154 87.435509,138.289871 
	C84.451439,138.622223 81.324448,140.154419 79.986908,143.433868 
	C79.294075,145.132599 78.462944,147.058975 81.670364,147.311203 
	C84.062637,147.499329 85.388596,148.771561 84.460228,151.357651 
	C83.595970,153.765137 82.202652,153.625473 80.319862,152.312393 
	C79.383743,151.659546 78.008324,151.659836 77.082985,152.597122 
	C76.244804,153.446121 75.576698,154.653503 76.519997,155.714630 
	C78.373512,157.799683 77.390457,159.141785 75.355431,159.690460 
	C72.958771,160.336655 70.677124,159.184097 70.525154,156.712524 
	C70.308609,153.190857 69.735474,152.550079 67.074142,155.217026 
	C64.683640,157.612579 63.528908,155.143417 62.520374,153.630280 
	C61.422245,151.982712 60.896248,150.078934 63.937511,149.777283 
	C65.315498,149.640610 66.044792,149.072037 66.017067,147.586411 
	C65.983047,145.763824 64.683929,146.065155 63.562046,145.968262 
	C61.753708,145.812073 60.598427,144.814621 61.225105,143.027878 
	C61.731293,141.584641 62.656780,139.673233 64.794807,141.377213 
	C66.054306,142.381012 66.930969,142.189377 67.463295,140.780685 
	C71.022659,131.361420 79.086761,129.840546 88.092758,129.186401 
z"/>
<path fill="#F9F9F9" opacity="1.000000" stroke="none" 
	d="
M100.364388,199.597565 
	C102.437752,200.310089 104.166435,200.841888 106.085297,201.432205 
	C103.694344,206.976883 101.162918,212.321793 98.140213,217.441406 
	C97.260864,218.930786 95.057365,220.404633 96.233192,222.181824 
	C97.428062,223.987793 99.803047,222.849503 101.676254,222.743835 
	C108.881882,222.337357 115.939651,222.909042 122.521439,226.161118 
	C123.255768,226.523956 126.559212,226.757996 123.238029,228.814499 
	C122.141426,229.493515 123.462997,230.830078 124.278755,231.668121 
	C125.775360,233.205566 127.236870,234.777161 128.770462,236.395126 
	C126.143517,238.485016 124.202347,238.358002 122.840912,235.332504 
	C122.710136,235.041916 122.466385,234.748779 122.197418,234.582306 
	C120.270012,233.389526 119.022484,229.258636 116.533981,231.373703 
	C114.635124,232.987595 118.577698,234.454010 119.280754,236.351089 
	C119.491524,236.919830 119.763634,237.465820 120.228485,238.525864 
	C106.375237,239.245865 93.064384,239.236679 80.103317,235.073959 
	C75.613884,233.632080 71.642502,231.147415 68.626595,227.493134 
	C67.245453,225.819641 65.143272,223.980225 66.573586,221.364044 
	C68.059555,218.646088 71.312897,217.587921 73.452286,218.614410 
	C80.558617,222.023987 83.664864,217.225204 87.127983,212.856567 
	C90.213036,208.964905 93.296455,205.059433 96.122284,200.981064 
	C97.228088,199.385132 98.103699,198.431503 100.364388,199.597565 
z"/>
<path fill="#F3F3F3" opacity="1.000000" stroke="none" 
	d="
M153.780838,112.262634 
	C152.682114,116.014259 149.165466,114.091187 146.900803,115.576164 
	C147.957672,117.749664 149.835693,117.398285 151.556137,117.433403 
	C155.659439,117.517174 157.812912,119.833282 157.454620,123.927559 
	C156.864258,130.674011 154.965576,136.704407 148.207413,139.887100 
	C146.090424,140.884094 144.220535,141.322678 143.218857,138.315964 
	C142.704254,136.771317 141.818268,135.287308 140.831680,133.978195 
	C139.450058,132.144867 140.251099,131.843033 141.977966,130.983398 
	C146.563690,128.700638 147.668823,122.164825 144.098404,118.334854 
	C142.266266,116.369522 140.367538,114.624229 142.358780,112.031578 
	C144.198135,109.636650 146.871735,108.792381 149.935974,109.656509 
	C151.401535,110.069809 152.834702,110.471573 153.780838,112.262634 
z"/>
<path fill="#EBEBEB" opacity="1.000000" stroke="none" 
	d="
M76.954620,186.980896 
	C77.859581,189.173752 78.845406,191.009674 81.383743,192.614441 
	C75.321419,194.680908 69.717850,195.759521 62.940784,196.185654 
	C67.830864,192.464813 71.682327,188.948837 76.954620,186.980896 
z"/>
<path fill="#FBFBFB" opacity="1.000000" stroke="none" 
	d="
M159.358490,106.668961 
	C161.085510,109.884323 159.907425,111.983711 157.597168,113.961006 
	C155.649796,106.369507 155.649796,106.369507 159.358490,106.668961 
z"/>
<path fill="#DADADA" opacity="1.000000" stroke="none" 
	d="
M162.927979,112.555054 
	C165.203064,113.402985 165.412811,114.247093 163.808716,116.347610 
	C162.858749,117.591568 161.736694,119.075691 159.877701,118.217186 
	C158.717514,117.681389 159.663086,116.991371 160.154388,116.388390 
	C161.069687,115.265053 161.912628,114.082779 162.927979,112.555054 
z"/>
<path fill="#C6C6C6" opacity="1.000000" stroke="none" 
	d="
M148.520874,106.718918 
	C147.555511,106.502045 146.142212,107.254242 146.641815,105.818489 
	C147.079315,104.561211 148.311371,103.782372 149.764145,104.020653 
	C150.903183,104.207481 151.962265,104.774254 152.152817,106.071297 
	C152.297913,107.058891 151.466949,106.899002 150.863388,106.873428 
	C150.212570,106.845863 149.563629,106.773666 148.520874,106.718918 
z"/>
<path fill="#050505" opacity="1.000000" stroke="none" 
	d="
M79.562485,38.504017 
	C81.123032,40.916359 82.378830,43.001240 82.094566,45.693588 
	C81.943855,47.121037 81.683060,48.482254 80.277458,48.912556 
	C78.834267,49.354359 77.352989,49.110062 76.206604,47.803764 
	C74.757683,46.152740 73.648544,44.268295 73.168510,42.193066 
	C72.704597,40.187572 71.813103,37.678734 74.188118,36.311211 
	C76.314766,35.086704 77.864349,36.832588 79.562485,38.504017 
z"/>
</svg>